<svg width="128" height="30" viewBox="0 0 128 30" fill="none" xmlns="http://www.w3.org/2000/svg">
<g id="action section">
<g id="call action">
<circle id="Ellipse 11" cx="15" cy="15" r="15" fill="#E6E6FF"/>
<path id="call icon" d="M19.827 16.859L17.0602 15.621C16.9529 15.5745 16.8358 15.5556 16.7193 15.5658C16.6029 15.576 16.4909 15.6151 16.3934 15.6796C16.3856 15.6845 16.3781 15.69 16.3711 15.696L14.918 16.9346C14.8856 16.9544 14.8489 16.9658 14.8111 16.9679C14.7733 16.9701 14.7355 16.9629 14.7012 16.9469C13.7496 16.4876 12.7647 15.5102 12.3053 14.5698C12.289 14.5357 12.2815 14.4981 12.2833 14.4604C12.2852 14.4226 12.2963 14.3859 12.3158 14.3536L13.558 12.8764C13.5639 12.8694 13.5691 12.8618 13.5744 12.8542C13.6386 12.7568 13.6776 12.645 13.6878 12.5288C13.6981 12.4126 13.6792 12.2956 13.633 12.1885L12.3926 9.42643C12.3327 9.28653 12.229 9.16984 12.0972 9.09388C11.9653 9.01791 11.8124 8.98678 11.6613 9.00514C10.924 9.10236 10.2472 9.46467 9.75746 10.0244C9.26771 10.5841 8.99846 11.303 9.00001 12.0467C9.00001 16.5702 12.6797 20.2499 17.2031 20.2499C17.9469 20.2514 18.6657 19.9822 19.2255 19.4924C19.7852 19.0027 20.1475 18.3259 20.2447 17.5885C20.263 17.4382 20.2321 17.2859 20.1569 17.1545C20.0816 17.023 19.9659 16.9194 19.827 16.859ZM19.7813 17.5299C19.6985 18.1544 19.3912 18.7274 18.9167 19.1417C18.4422 19.556 17.833 19.7833 17.2031 19.7811C12.9387 19.7811 9.46876 16.3112 9.46876 12.0467C9.46657 11.4168 9.69389 10.8077 10.1082 10.3332C10.5225 9.8587 11.0955 9.55136 11.7199 9.46862C11.7293 9.46803 11.7387 9.46803 11.7481 9.46862C11.7943 9.46901 11.8394 9.48307 11.8776 9.50903C11.9159 9.535 11.9456 9.5717 11.9631 9.61452L13.2 12.3766C13.2144 12.4104 13.2207 12.4471 13.2184 12.4837C13.2161 12.5203 13.2051 12.5559 13.1865 12.5876L11.9449 14.0641C11.9391 14.0717 11.9332 14.0788 11.9279 14.087C11.8618 14.1881 11.8228 14.3046 11.8148 14.4252C11.8068 14.5458 11.83 14.6664 11.8822 14.7755C12.3914 15.8178 13.4414 16.8602 14.4955 17.3694C14.6053 17.4213 14.7266 17.4438 14.8476 17.4349C14.9687 17.4259 15.0854 17.3858 15.1863 17.3184L15.208 17.302L16.6629 16.0645C16.694 16.0455 16.7292 16.0342 16.7656 16.0314C16.8019 16.0287 16.8384 16.0346 16.8721 16.0487L19.6383 17.2885C19.685 17.308 19.7241 17.342 19.7499 17.3855C19.7757 17.429 19.7867 17.4797 19.7813 17.5299Z" fill="#5F4DE3"/>
</g>
<g id="inbox action">
<circle id="Ellipse 12" cx="64" cy="15" r="15" fill="#E6E6FF"/>
<g id="inbox icon">
<path id="Vector 2" d="M61 14H67" stroke="#5F4DE3" stroke-width="0.7"/>
<path id="Vector 3" d="M61 16H65" stroke="#5F4DE3" stroke-width="0.7"/>
<path id="Rectangle 55" d="M58.2 11C58.2 10.0059 59.0059 9.2 60 9.2H68C68.9941 9.2 69.8 10.0059 69.8 11V16C69.8 18.651 67.651 20.8 65 20.8H58.2V11Z" stroke="#5F4DE3" stroke-width="0.4"/>
</g>
</g>
<g id="message action">
<circle id="Ellipse 13" cx="113" cy="15" r="15" fill="#E6E6FF"/>
<g id="message icon">
<rect id="Rectangle 30" x="107.25" y="9.25" width="11.75" height="11.5" rx="2.75" stroke="#5F4DE3" stroke-width="0.5"/>
<path id="Vector 1" d="M110.5 12.375C110.5 12.375 111.675 15 113.125 15C114.575 15 115.75 12.375 115.75 12.375" stroke="#5F4DE3" stroke-width="0.5"/>
</g>
</g>
</g>
</svg>
