<svg width="150" height="150" viewBox="0 0 150 150" fill="none" xmlns="http://www.w3.org/2000/svg">
<path id="Ellipse 5" d="M75 150C56.1274 150 37.9485 142.885 24.0899 130.074C10.2314 117.263 1.71193 99.6989 0.231199 80.8844C-1.24953 62.07 4.41732 43.3889 16.1012 28.5679C27.7852 13.747 44.6272 3.8757 63.2674 0.923373C81.9077 -2.02895 100.976 2.15473 116.668 12.6398C132.36 23.1248 143.522 39.1405 147.928 57.4916C152.333 75.8428 149.659 95.1803 140.437 111.647C131.216 128.113 116.125 140.497 98.1763 146.329L93.541 132.063C107.9 127.398 119.973 117.49 127.35 104.317C134.727 91.1443 136.867 75.6742 133.342 60.9933C129.818 46.3124 120.888 33.4999 108.334 25.1118C95.7806 16.7238 80.5261 13.3768 65.6139 15.7387C50.7017 18.1006 37.2281 25.9976 27.881 37.8544C18.5339 49.7111 14.0004 64.656 15.185 79.7075C16.3695 94.7591 23.1851 108.811 34.272 119.059C45.3588 129.308 59.9019 135 75 135V150Z" fill="#5F4DE3"/>
</svg>
