<svg width="147" height="150" viewBox="0 0 147 150" fill="none" xmlns="http://www.w3.org/2000/svg">
<path id="Ellipse 7" d="M75 150C61.1683 150 47.606 146.175 35.8126 138.948C24.0192 131.721 14.454 121.373 8.17451 109.049C1.89506 96.7252 -0.854021 82.9046 0.2312 69.1156C1.31642 55.3265 6.19367 42.1062 14.3237 30.9161C22.4538 19.726 33.5199 11.0022 46.2987 5.70903C59.0775 0.415881 73.0712 -1.24038 86.7326 0.923375C100.394 3.08713 113.191 8.9866 123.709 17.9696C134.226 26.9525 142.055 38.669 146.329 51.8237L132.063 56.459C128.644 45.9352 122.381 36.562 113.967 29.3756C105.553 22.1893 95.3152 17.4697 84.3861 15.7387C73.457 14.0077 62.262 15.3327 52.039 19.5672C41.816 23.8017 32.963 30.7808 26.459 39.7329C19.9549 48.6849 16.0531 59.2612 15.185 70.2924C14.3168 81.3237 16.516 92.3801 21.5396 102.239C26.5632 112.099 34.2153 120.377 43.6501 126.158C53.0848 131.94 63.9347 135 75 135V150Z" fill="#5F4DE3"/>
</svg>
