<svg width="109" height="143" viewBox="0 0 109 143" fill="none" xmlns="http://www.w3.org/2000/svg">
<path id="Ellipse 6" d="M67.631 0.962771C76.4344 5.3792 84.2818 11.4864 90.725 18.9356C97.1682 26.3848 102.081 35.0301 105.183 44.378C108.285 53.7258 109.516 63.5932 108.804 73.4166C108.093 83.24 105.454 92.8271 101.037 101.631C96.621 110.434 90.5138 118.281 83.0646 124.725C75.6155 131.168 66.9701 136.081 57.6222 139.183C48.2744 142.285 38.407 143.515 28.5836 142.804C18.7602 142.093 9.17307 139.453 0.369624 135.037L7.09576 121.63C14.1385 125.163 21.8082 127.274 29.6669 127.843C37.5257 128.412 45.4196 127.428 52.8979 124.946C60.3761 122.465 67.2924 118.534 73.2518 113.38C79.2111 108.225 84.0969 101.947 87.63 94.9044C91.1632 87.8617 93.2745 80.192 93.8436 72.3333C94.4127 64.4745 93.4283 56.5807 90.9466 49.1023C88.4649 41.6241 84.5346 34.7078 79.38 28.7484C74.2255 22.7891 67.9476 17.9033 60.9048 14.3702L67.631 0.962771Z" fill="#B4ADF8"/>
</svg>
