<svg width="133" height="85" viewBox="0 0 133 85" fill="none" xmlns="http://www.w3.org/2000/svg">
<g id="employee section">
<g id="employee icon">
<path id="Rectangle 29" d="M33.5 25C33.5 21.4101 36.4101 18.5 40 18.5H75C78.5899 18.5 81.5 21.4101 81.5 25V59C81.5 62.5899 78.5899 65.5 75 65.5H40C36.4101 65.5 33.5 62.5899 33.5 59V25Z" stroke="white"/>
<path id="Vector" d="M61.0034 40.3159C59.925 41.3942 58.4625 42 56.9375 42C55.4125 42 53.95 41.3942 52.8716 40.3159C51.7933 39.2375 51.1875 37.775 51.1875 36.25C51.1875 34.725 51.7933 33.2625 52.8716 32.1841C53.95 31.1058 55.4125 30.5 56.9375 30.5C58.4625 30.5 59.925 31.1058 61.0034 32.1841C62.0817 33.2625 62.6875 34.725 62.6875 36.25C62.6875 37.775 62.0817 39.2375 61.0034 40.3159ZM46.5 53.5498C46.5 49.0164 50.1726 45.3438 54.7061 45.3438H59.1689C63.7024 45.3438 67.375 49.0164 67.375 53.5498C67.375 54.0744 66.9494 54.5 66.4248 54.5H47.4502C46.9256 54.5 46.5 54.0744 46.5 53.5498Z" stroke="white"/>
</g>
</g>
</svg>
