<svg width="133" height="85" viewBox="0 0 133 85" fill="none" xmlns="http://www.w3.org/2000/svg">
<g id="log out section">
<g id="log out icon">
<path id="Vector" d="M50.1543 33C50.1837 27.78 50.4213 24.9528 52.3029 23.1096C54.4565 21 57.9208 21 64.8494 21H67.2994C74.2304 21 77.6947 21 79.8483 23.1096C81.9994 25.2168 81.9994 28.6128 81.9994 35.4V54.6C81.9994 61.3872 81.9994 64.7832 79.8483 66.8904C77.6923 69 74.2304 69 67.2994 69H64.8494C57.9208 69 54.4565 69 52.3029 66.8904C50.4213 65.0472 50.1837 62.22 50.1543 57" stroke="white" stroke-linecap="round"/>
<path id="Vector_2" d="M64.85 44.9998H33M33 44.9998L41.575 37.7998M33 44.9998L41.575 52.1998" stroke="white" stroke-linecap="round" stroke-linejoin="round"/>
</g>
</g>
</svg>
