<svg width="42" height="39" viewBox="0 0 42 39" fill="none" xmlns="http://www.w3.org/2000/svg">
<g id="salary">
<path id="Vector" d="M38 12.5V3C38 2.46957 37.7893 1.96086 37.4142 1.58579C37.0391 1.21071 36.5304 1 36 1H3C2.46957 1 1.96086 1.21071 1.58579 1.58579C1.21071 1.96086 1 2.46957 1 3V36C1 36.5304 1.21071 37.0391 1.58579 37.4142C1.96086 37.7893 2.46957 38 3 38H36C36.5304 38 37.0391 37.7893 37.4142 37.4142C37.7893 37.0391 38 36.5304 38 36V26.5" stroke="#5F4DE3" stroke-linecap="round" stroke-linejoin="round"/>
<path id="Vector_2" d="M39.9862 12.5H24.5002C24.2994 12.5 24.1068 12.5798 23.9649 12.7217C23.8229 12.8637 23.7432 13.0562 23.7432 13.257V25.743C23.7432 25.9438 23.8229 26.1363 23.9649 26.2783C24.1068 26.4202 24.2994 26.5 24.5002 26.5H39.9862C40.1869 26.5 40.3795 26.4202 40.5214 26.2783C40.6634 26.1363 40.7432 25.9438 40.7432 25.743V13.257C40.7432 13.0562 40.6634 12.8637 40.5214 12.7217C40.3795 12.5798 40.1869 12.5 39.9862 12.5Z" stroke="#5F4DE3" stroke-linecap="round" stroke-linejoin="round"/>
<g id="Group">
<path id="Vector_3" d="M9.72222 32.4442C9.72222 33.5176 11.4637 34.3887 13.6111 34.3887C15.7586 34.3887 17.5 33.5176 17.5 32.4442M3.5 28.5553C3.5 29.6287 5.24144 30.4998 7.38889 30.4998C8.26467 30.4998 9.07278 30.3551 9.72222 30.1109M3.5 31.2776C3.5 32.3509 5.24144 33.222 7.38889 33.222C8.26467 33.222 9.072 33.0773 9.72222 32.8331M13.6111 31.2776C11.4637 31.2776 9.72222 30.4064 9.72222 29.3331C9.72222 28.2598 11.4637 27.3887 13.6111 27.3887C15.7586 27.3887 17.5 28.2598 17.5 29.3331C17.5 30.4064 15.7586 31.2776 13.6111 31.2776Z" stroke="#5F4DE3" stroke-linecap="round" stroke-linejoin="round"/>
<path id="Vector_4" d="M3.5 25.4443V33.9999C3.5 35.0732 5.24144 35.9443 7.38889 35.9443C8.26467 35.9443 9.072 35.7997 9.72222 35.5554M9.72222 35.5554V29.3332M9.72222 35.5554C9.72222 36.6288 11.4637 37.4999 13.6111 37.4999C15.7586 37.4999 17.5 36.6288 17.5 35.5554V29.3332M11.2778 27.7777V25.4443" stroke="#5F4DE3" stroke-linecap="round" stroke-linejoin="round"/>
<path id="Vector_5" d="M7.38889 27.3889C5.24144 27.3889 3.5 26.5178 3.5 25.4444C3.5 24.3711 5.24144 23.5 7.38889 23.5C9.53633 23.5 11.2778 24.3711 11.2778 25.4444C11.2778 26.5178 9.53633 27.3889 7.38889 27.3889Z" stroke="#5F4DE3" stroke-linecap="round" stroke-linejoin="round"/>
</g>
</g>
</svg>
