<svg width="133" height="85" viewBox="0 0 133 85" fill="none" xmlns="http://www.w3.org/2000/svg">
<g id="settings section">
<path id="settings icon" d="M76.2007 44.3437C76.3077 43.5665 76.3651 42.7838 76.3726 42C76.3651 41.2161 76.3077 40.4335 76.2007 39.6563L81.5174 35.6836C81.7575 35.5086 81.9216 35.2552 81.9782 34.972C82.0349 34.6888 81.9801 34.3956 81.8244 34.1485L76.7901 25.8164C76.6443 25.5665 76.4077 25.3761 76.125 25.2812C75.8423 25.1862 75.5329 25.1932 75.2552 25.3008L68.9807 27.7149C67.6751 26.7639 66.2474 25.9762 64.7322 25.3711L63.7868 19.0079C63.7451 18.7263 63.5975 18.4688 63.3716 18.2834C63.1457 18.098 62.8568 17.9973 62.5589 18.0001H52.4657C52.1677 17.9973 51.8789 18.098 51.653 18.2834C51.427 18.4688 51.2795 18.7263 51.2378 19.0079L50.2923 25.3711C48.7752 25.9725 47.347 26.7604 46.0438 27.7149L39.7448 25.3008C39.4671 25.1932 39.1577 25.1862 38.875 25.2812C38.5923 25.3761 38.3557 25.5665 38.2099 25.8164L33.1756 34.1485C33.0199 34.3956 32.9651 34.6888 33.0218 34.972C33.0784 35.2552 33.2425 35.5086 33.4826 35.6836L38.787 39.6563C38.6805 40.4335 38.6231 41.2162 38.6151 42C38.6226 42.7838 38.6801 43.5665 38.787 44.3437L33.4826 48.3164C33.2425 48.4914 33.0784 48.7448 33.0218 49.028C32.9651 49.3112 33.0199 49.6044 33.1756 49.8515L38.2099 58.1836C38.3557 58.4335 38.5923 58.6239 38.875 58.7188C39.1577 58.8138 39.4671 58.8068 39.7448 58.6992L46.0193 56.2851C47.3249 57.2361 48.7526 58.0238 50.2678 58.6289L51.2132 64.9921C51.2549 65.2737 51.4025 65.5312 51.6284 65.7166C51.8543 65.902 52.1432 66.0027 52.4411 65.9999H62.5098C62.8077 66.0027 63.0966 65.902 63.3225 65.7166C63.5484 65.5312 63.696 65.2737 63.7377 64.9921L64.6831 58.6289C66.2002 58.0275 67.6284 57.2396 68.9316 56.2851L75.2061 58.6992C75.4838 58.8068 75.7932 58.8138 76.0759 58.7188C76.3586 58.6239 76.5952 58.4335 76.741 58.1836L81.7753 49.8515C81.931 49.6044 81.9857 49.3112 81.9291 49.028C81.8725 48.7448 81.7084 48.4914 81.4683 48.3164L76.2007 44.3437ZM57.5 50.414C55.7558 50.4164 54.0501 49.9249 52.5986 49.0017C51.1472 48.0786 50.0153 46.7653 49.3461 45.228C48.677 43.6908 48.5006 41.9986 48.8394 40.3657C49.1782 38.7328 50.0169 37.2324 51.2494 36.0545C52.4819 34.8766 54.0527 34.0741 55.7632 33.7485C57.4738 33.4229 59.247 33.5888 60.8587 34.2253C62.4704 34.8618 63.848 35.9403 64.8173 37.3242C65.7866 38.7081 66.3039 40.3354 66.3039 42C66.3056 43.1044 66.079 44.1983 65.6373 45.219C65.1956 46.2398 64.5474 47.1674 63.7297 47.9489C62.912 48.7304 61.9409 49.3503 60.872 49.7733C59.803 50.1963 58.6572 50.414 57.5 50.414Z" stroke="white" stroke-linecap="round" stroke-linejoin="round"/>
</g>
</svg>
