<svg width="133" height="85" viewBox="0 0 133 85" fill="none" xmlns="http://www.w3.org/2000/svg">
<g id="vacation section">
<path id="vacation icon" d="M81.5 43.7123V43.7127V50.5694C81.5 50.8881 81.3709 51.1958 81.1376 51.4243C80.9039 51.6532 80.5848 51.7836 80.25 51.7836H80.2489C80.1674 51.7838 80.0862 51.7757 80.0065 51.7594L80.0024 51.7586L63.7208 48.5788L63.125 48.4624V49.0695V54.1542V54.3644L63.2752 54.5115L67.1381 58.2931C67.3696 58.5201 67.4984 58.8253 67.5 59.1417C67.5 59.1419 67.5 59.1422 67.5 59.1425L67.5 64.2829V64.2837C67.5003 64.4809 67.4513 64.6756 67.3564 64.8508C67.2615 65.0261 67.1235 65.1769 66.9536 65.2893C66.7837 65.4018 66.5874 65.472 66.3819 65.4932C66.1764 65.5144 65.9689 65.4857 65.7779 65.4101L65.7763 65.4094L57.6825 62.236L57.5 62.1645L57.3175 62.236L49.2237 65.4094L49.2221 65.4101C49.0311 65.4857 48.8236 65.5144 48.6181 65.4932C48.4126 65.472 48.2163 65.4018 48.0464 65.2893L47.7705 65.7063L48.0464 65.2893C47.8765 65.1769 47.7385 65.0261 47.6436 64.8508C47.5487 64.6756 47.4997 64.4809 47.5 64.2837V64.2829V59.1403V59.1399C47.4999 58.9819 47.5315 58.8251 47.5934 58.6785C47.6553 58.5318 47.7464 58.3979 47.862 58.2845L51.7248 54.5029L51.875 54.3559V54.1456V49.0695V48.4624L51.2792 48.5788L34.9976 51.7586L34.9935 51.7594C34.9138 51.7757 34.8326 51.7838 34.7511 51.7836H34.75C34.4152 51.7836 34.0961 51.6532 33.8624 51.4243L33.5126 51.7815L33.8624 51.4243C33.6291 51.1958 33.5 50.8881 33.5 50.5694L33.5 43.7127L33.5 43.7123C33.4998 43.4889 33.5632 43.2692 33.6839 43.0776C33.8046 42.886 33.9784 42.7297 34.1868 42.6276C34.1868 42.6275 34.1869 42.6275 34.1869 42.6275L51.5949 34.1038L51.875 33.9666V33.6547V23.9996C51.875 22.5444 52.4651 21.1467 53.5189 20.1144C54.573 19.0819 56.0049 18.5 57.5 18.5C58.9951 18.5 60.427 19.0819 61.4812 20.1144C62.5349 21.1467 63.125 22.5444 63.125 23.9996V33.6547V33.9666L63.4051 34.1038L80.8131 42.6275C80.8131 42.6275 80.8131 42.6275 80.8131 42.6275C80.8132 42.6275 80.8132 42.6275 80.8132 42.6276C81.0216 42.7297 81.1954 42.886 81.3161 43.0776C81.4368 43.2692 81.5002 43.4889 81.5 43.7123ZM81.4874 51.7815C81.1592 52.103 80.7141 52.2836 80.25 52.2836L82 43.7127V50.5694C82 51.024 81.8156 51.4601 81.4874 51.7815Z" stroke="white"/>
</g>
</svg>
